# xmcd
#
# Track frame offsets: 
#        150
#        25251
#        50205
#        70614
#        96739
#        118068
#        137372
#        154668
#        179248
#        197819
#
# Disc length: 2965 seconds
#
# Revision: 0
# Processed by: cddbd v1.5.2PL0 Copyright (c) Steve Scherf et al.
# Submitted via: ExactAudioCopyFreeDBPlugin 1.0
#
DISCID=950b930a
DTITLE=Thomas Chapland - Looking 4 trouble
DYEAR=1900
DGENRE=Blues
TTITLE0=Looking 4 trouble
TTITLE1=Everything's Alright
TTITLE2=All The Pain
TTITLE3=The Producer's Blues
TTITLE4=Stand Still
TTITLE5=Get Outta Here
TTITLE6=Talking About A Day Dream
TTITLE7=Dead 'n' Gone
TTITLE8=Slow 'n' Easy
TTITLE9=Come On In My Kitchen
EXTD=
EXTT0=
EXTT1=
EXTT2=
EXTT3=
EXTT4=
EXTT5=
EXTT6=
EXTT7=
EXTT8=
EXTT9=
PLAYORDER=
